<?xml version="1.0" encoding="UTF-8"?>
<svg width="2.5in" height="4.5in" viewBox="0 0 2500 4500"
     xmlns="http://www.w3.org/2000/svg" 
     xmlns:xlink="http://www.w3.org/1999/xlink">

  <svg clip-path="url(#card-back-clip-path)">
    <circle cx="50%" cy="240" r="27%" fill="black" />
    <circle cx="50%" cy="4260" r="27%" fill="black" />
  </svg>

  <svg
    id="wrapper"
    x="0" y="1000"
    width="2500" height="2500">
    <circle cx="50%" cy="50%" r="45%" fill="black" />
    <circle cx="50%" cy="50%" r="42%" fill="#aaa" />
    <circle cx="50%" cy="50%" r="41%" fill="black" />
    <g transform="translate(1250, 1250)">
      <use
        xlink:href="#all-arcs"
        transform="scale(1, 1)"
      />
      <use
        xlink:href="#all-arcs"
        transform="scale(-1, 1)"
      />
    </g>
    <circle cx="50%" cy="50%" r="24%" fill="#aaa" />
    <circle cx="50%" cy="50%" r="23%" fill="black" />
    <circle cx="50%" cy="50%" r="20%" fill="white" />
    <circle cx="50%" cy="50%" r="19%" fill="#aaa" />
    <use
      xlink:href="#pupil-shadow1"
      transform="translate(1250, 1250)"
    />
    <use
      xlink:href="#pupil-shadow2"
      transform="translate(1250, 1250)"
    />
    <use
      xlink:href="#pupil-shadow3"
      transform="translate(1250, 1250)"
    />
    <circle cx="50%" cy="50%" r="7%" fill="black" />
  </svg><!-- /#wrapper -->

  <use
    xlink:href="#ornate-section"
    transform="translate(1250, 2250) rotate(0) translate(0, -200) scale(.82, .82) translate(-1250, -2250) "
  />
  <use
    xlink:href="#ornate-section"
    transform="translate(1250, 2250) rotate(180) translate(0, -200) scale(.82, .82) translate(-1250, -2250) "
  />

  <defs>
    <clipPath
      id="card-back-clip-path"
    >
      <rect x="0" y="200" width="2500" height="4100" />
    </clipPath>

    <path
      id="arc"
      d="M 0 0
         A 1000 1000 0 0 0 1037.5 0"
      fill="none"
      stroke="#aaa"
      stroke-width="1%"
    ></path>
    <g id="eight-arcs">
      <use xlink:href="#arc" transform="rotate(0)" />
      <use xlink:href="#arc" transform="rotate(90)" />
      <use xlink:href="#arc" transform="rotate(180)" />
      <use xlink:href="#arc" transform="rotate(270)" />
      <use xlink:href="#arc" transform="rotate(45)" />
      <use xlink:href="#arc" transform="rotate(135)" />
      <use xlink:href="#arc" transform="rotate(225)" />
      <use xlink:href="#arc" transform="rotate(315)" />
    </g>
    <g id="all-arcs">
      <use
        xlink:href="#eight-arcs"
        transform="rotate(0)"
      />
      <use
        xlink:href="#eight-arcs"
        transform="rotate(9)"
      />
      <use
        xlink:href="#eight-arcs"
        transform="rotate(18)"
      />
      <use
        xlink:href="#eight-arcs"
        transform="rotate(27)"
      />
      <use
        xlink:href="#eight-arcs"
        transform="rotate(36)"
      />
    </g>
    <ellipse
      id="pupil-shadow1-part" cx="0" cy="0" rx="450" ry="180" fill="#999"/>
    <ellipse
      id="pupil-shadow2-part" cx="0" cy="0" rx="375" ry="100" fill="#777"/>
    <ellipse
      id="pupil-shadow3-part" cx="0" cy="0" rx="250" ry="75" fill="#444"/>
    <g id="pupil-shadow1">
      <use
        xlink:href="#pupil-shadow1-part"
        transform="rotate(0)"
      />
      <use
        xlink:href="#pupil-shadow1-part"
        transform="rotate(30)"
      />
      <use
        xlink:href="#pupil-shadow1-part"
        transform="rotate(60)"
      />
      <use
        xlink:href="#pupil-shadow1-part"
        transform="rotate(90)"
      />
      <use
        xlink:href="#pupil-shadow1-part"
        transform="rotate(120)"
      />
      <use
        xlink:href="#pupil-shadow1-part"
        transform="rotate(150)"
      />
    </g>
    <g id="pupil-shadow2">
      <use
        xlink:href="#pupil-shadow2-part"
        transform="rotate(15)"
      />
      <use
        xlink:href="#pupil-shadow2-part"
        transform="rotate(45)"
      />
      <use
        xlink:href="#pupil-shadow2-part"
        transform="rotate(75)"
      />
      <use
        xlink:href="#pupil-shadow2-part"
        transform="rotate(105)"
      />
      <use
        xlink:href="#pupil-shadow2-part"
        transform="rotate(135)"
      />
      <use
        xlink:href="#pupil-shadow2-part"
        transform="rotate(165)"
      />
    </g>
    <g id="pupil-shadow3">
      <use
        xlink:href="#pupil-shadow3-part"
        transform="rotate(0)"
      />
      <use
        xlink:href="#pupil-shadow3-part"
        transform="rotate(30)"
      />
      <use
        xlink:href="#pupil-shadow3-part"
        transform="rotate(60)"
      />
      <use
        xlink:href="#pupil-shadow3-part"
        transform="rotate(90)"
      />
      <use
        xlink:href="#pupil-shadow3-part"
        transform="rotate(120)"
      />
      <use
        xlink:href="#pupil-shadow3-part"
        transform="rotate(150)"
      />
    </g>

    <path
      id="triangle-side"
      d="M -315 350
          L 315 350"
      stroke-width="30"
      stroke-linecap="round"
      stroke="#aaa"
      fill="none"
    ></path>

    <g id="triangle">
      <use
        xlink:href="#triangle-side"
        transform="rotate(0)"
      />
      <use
        xlink:href="#triangle-side"
        transform="rotate(120)"
      />
      <use
        xlink:href="#triangle-side"
        transform="rotate(240)"
      />
    </g>

    <path
      id="triquetra-arc"
      d="M 325 186
         A 340 340 0 0 0 -325 186"
      stroke-width="30"
      stroke-linecap="round"
      stroke="#aaa"
      fill="none"
    />

    <g id="triquetra">
      <use
        xlink:href="#triquetra-arc"
        transform="rotate(0) translate(0, 0)"
      />
      <use
        xlink:href="#triquetra-arc"
        transform="rotate(120) translate(0, 0)"
      />
      <use
        xlink:href="#triquetra-arc"
        transform="rotate(240) translate(0, 0)"
      />
    </g>

    <g id="ornate-section">

      <path
        d="M 150 15
           A 1000 1000 0 0 0 2350 15
           L 1750 15
           A 500 500 0 0 1 750 15
           Z"
        stroke-width="30"
        stroke="#aaa"
      />

      <path
        d="M 150 15
           A 1250 1250 0 0 0 2350 15"
        stroke-width="30"
        stroke-linecap="round"
        stroke="#aaa"
        fill="none"
      />
      <path
        d="M 600 900
           A 1000 1000 0 0 1 1900 900"
        stroke-width="30"
        stroke-linecap="round"
        stroke="#aaa"
        fill="none"
      />

      <circle
        cx="20.5%" cy="7.25%"
        r="6%"
        stroke-width="30"
        stroke="#aaa"
        fill="black"
      />
      <circle
        cx="50%" cy="14%"
        r="13%"
        fill="black"
        stroke-width="30"
        stroke="#aaa"
      />
      <circle
        cx="79.5%" cy="7.25%"
        r="6%"
        stroke-width="30"
        stroke="#aaa"
        fill="black"
      />

      <use
        x="20.5%" y="7.25%"
        xlink:href="#moon"
      />
      <use
        x="79.5%" y="7.25%"
        xlink:href="#moon-reversed"
      />

      <use
        xlink:href="#triangle"
        x="50%" y="13.88%"
      />
      <use
        xlink:href="#triquetra"
        x="50%" y="13.75%"
      />
      <circle
        cx="50%" cy="13.75%"
        r="6%"
        fill="none"
        stroke-width="30"
        stroke="#aaa"
      />
    </g>

    <g id="moon">
      <circle
        cx="0" cy="0"
        r="155"
        fill="#aaa"
      />
      <circle
        cx="70" cy="0"
        r="120"
        fill="#black"
      />
    </g>

    <g id="moon-reversed">
      <use
        xlink:href="#moon"
        transform="rotate(180)"
      />
    </g>
  </defs>
</svg>
